# Blender v3.2.1 OBJ File: ''
# www.blender.org
mtllib leftLeg.mtl
o LeftLeg_N00b4.002
v -0.431444 0.944362 0.502374
v -0.431442 -0.925638 0.502374
v 0.438558 -0.925638 0.502374
v 0.438556 0.944362 0.502374
v -0.431444 1.009362 0.437373
v -0.496444 0.944361 0.437373
v -0.496442 -0.925638 0.437373
v -0.431442 -0.990638 0.437373
v 0.438558 -0.990638 0.437373
v 0.503558 -0.925638 0.437373
v 0.503556 0.944362 0.437373
v 0.438556 1.009362 0.437373
v -0.431444 1.009362 0.437373
v -0.431444 1.009362 -0.432626
v -0.496444 0.944361 -0.432626
v -0.496444 0.944361 0.437373
v -0.496442 -0.925638 -0.432626
v -0.496442 -0.925638 0.437373
v -0.431442 -0.990638 -0.432626
v -0.431442 -0.990638 0.437373
v -0.431442 -0.990638 0.437373
v -0.431442 -0.990638 -0.432626
v 0.438558 -0.990638 -0.432626
v 0.438558 -0.990638 0.437373
v 0.438558 -0.990638 0.437373
v 0.438558 -0.990638 -0.432626
v 0.503558 -0.925638 -0.432626
v 0.503556 0.944362 -0.432626
v 0.438556 1.009362 -0.432626
v 0.438556 1.009362 0.437373
v 0.438556 1.009362 0.437373
v 0.438556 1.009362 -0.432626
v -0.431444 1.009362 -0.432626
v -0.431444 1.009362 0.437373
v -0.431444 1.009362 -0.432626
v -0.431444 0.944362 -0.497626
v -0.431442 -0.925638 -0.497626
v -0.431442 -0.990638 -0.432626
v 0.438558 -0.925638 -0.497626
v 0.438558 -0.990638 -0.432626
v 0.438556 0.944362 -0.497626
v 0.438556 1.009362 -0.432626
vt 0.507334 0.527598
vt 0.513890 0.527598
vt 0.513890 0.496740
vt 0.507334 0.496740
vt 0.507125 0.527598
vt 0.507334 0.529652
vt 0.513890 0.529652
vt 0.514100 0.527598
vt 0.514100 0.496740
vt 0.513890 0.494686
vt 0.507334 0.494686
vt 0.507125 0.496740
vt 0.507125 0.398005
vt 0.507125 0.428863
vt 0.507334 0.428863
vt 0.507334 0.398005
vt 0.513890 0.428863
vt 0.513890 0.398005
vt 0.514100 0.428863
vt 0.514100 0.398005
vt 0.482792 0.360985
vt 0.482792 0.391844
vt 0.485969 0.391844
vt 0.485969 0.360985
vt 0.514100 0.494686
vt 0.514100 0.463828
vt 0.513890 0.463828
vt 0.507334 0.463828
vt 0.507125 0.463828
vt 0.507125 0.494686
vt 0.478351 0.391844
vt 0.478351 0.360985
vt 0.475182 0.360985
vt 0.475182 0.391844
vt 0.507125 0.430917
vt 0.507334 0.430917
vt 0.513890 0.430917
vt 0.514100 0.430917
vt 0.513890 0.461775
vt 0.514100 0.461775
vt 0.507334 0.461775
vt 0.507125 0.461775
vn -0.0000 -0.0000 1.0000
vn 0.0000 1.0000 0.0000
vn -1.0000 -0.0000 -0.0000
vn 0.0000 -1.0000 -0.0000
vn 1.0000 -0.0000 0.0000
vn 0.0000 1.0000 -0.0005
vn -1.0000 -0.0000 0.0004
vn -0.0000 -1.0000 0.0004
vn 0.0000 -0.0000 -1.0000
usemtl N00b1Mtl.002
s 1
f 1/1/1 2/2/1 3/3/1
f 1/1/1 3/3/1 4/4/1
f 1/1/1 5/5/2 6/6/3
f 1/1/1 6/6/3 7/7/3
f 1/1/1 7/7/3 2/2/1
f 2/2/1 7/7/3 8/8/4
f 2/2/1 8/8/4 9/9/4
f 2/2/1 9/9/4 3/3/1
f 3/3/1 9/9/4 10/10/5
f 3/3/1 10/10/5 11/11/5
f 3/3/1 11/11/5 4/4/1
f 4/4/1 11/11/5 12/12/2
f 4/4/1 12/12/2 5/5/2
f 4/4/1 5/5/2 1/1/1
f 13/13/2 14/14/6 15/15/3
f 13/13/2 15/15/3 16/16/7
f 16/16/7 15/15/3 17/17/3
f 16/16/7 17/17/3 18/18/3
f 18/18/3 17/17/3 19/19/4
f 18/18/3 19/19/4 20/20/4
f 21/21/4 22/22/4 23/23/4
f 21/21/4 23/23/4 24/24/4
f 25/25/4 26/26/8 27/27/5
f 25/25/4 27/27/5 10/10/5
f 10/10/5 27/27/5 28/28/5
f 10/10/5 28/28/5 11/11/5
f 11/11/5 28/28/5 29/29/2
f 11/11/5 29/29/2 30/30/2
f 31/31/2 32/32/2 33/33/2
f 31/31/2 33/33/2 34/34/2
f 35/35/2 36/36/9 15/15/3
f 15/15/3 36/36/9 37/37/9
f 15/15/3 37/37/9 17/17/3
f 17/17/3 37/37/9 38/38/4
f 38/38/4 37/37/9 39/39/9
f 38/38/4 39/39/9 40/40/4
f 40/40/4 39/39/9 27/27/5
f 27/27/5 39/39/9 41/41/9
f 27/27/5 41/41/9 28/28/5
f 28/28/5 41/41/9 42/42/2
f 42/42/2 41/41/9 36/36/9
f 42/42/2 36/36/9 35/35/2
f 41/41/9 39/39/9 37/37/9
f 41/41/9 37/37/9 36/36/9
