# This file is brought to you by Roblox Corporation
# Generated by Roblox Studio

mtllib LeftLeg.mtl

g Leftleg1

v -0.435286 0.931517 0.498987 
v -0.433123 -0.93529 0.493841 
v 0.434118 -0.934282 0.494854 
v 0.431951 0.932525 0.5 
v -0.435286 0.931517 0.498987 
v -0.435286 0.996586 0.434566 
v -0.5 0.931617 0.434312 
v -0.435286 0.931517 0.498987 
v -0.5 0.931617 0.434312 
v -0.497837 -0.93519 0.429165 
v -0.433123 -0.93529 0.493841 
v -0.433123 -0.93529 0.493841 
v -0.497837 -0.93519 0.429165 
v -0.432964 -1 0.429062 
v -0.433123 -0.93529 0.493841 
v -0.432964 -1 0.429062 
v 0.434269 -0.998992 0.430075 
v 0.434118 -0.934282 0.494854 
v 0.434118 -0.934282 0.494854 
v 0.434269 -0.998992 0.430075 
v 0.498987 -0.934032 0.430329 
v 0.498987 -0.934032 0.430329 
v 0.49682 0.932775 0.435476 
v 0.431951 0.932525 0.5 
v 0.49682 0.932775 0.435476 
v 0.431952 0.997594 0.435579 
v -0.435286 0.996586 0.434566 
v -0.435286 0.931517 0.498987 
v -0.435286 0.996586 0.434566 
v -0.434269 0.998992 -0.430075 
v -0.498993 0.934022 -0.430329 
v -0.498993 0.934022 -0.430329 
v -0.49682 -0.932784 -0.435476 
v -0.497837 -0.93519 0.429165 
v -0.49682 -0.932784 -0.435476 
v -0.431957 -0.997594 -0.435579 
v -0.432964 -1 0.429062 
v -0.432964 -1 0.429062 
v -0.431957 -0.997594 -0.435579 
v 0.435282 -0.996586 -0.434566 
v 0.434269 -0.998992 0.430075 
v 0.434269 -0.998992 0.430075 
v 0.435282 -0.996586 -0.434566 
v 0.5 -0.931627 -0.434312 
v 0.498987 -0.934032 0.430329 
v 0.498987 -0.934032 0.430329 
v 0.5 -0.931627 -0.434312 
v 0.497833 0.935181 -0.429165 
v 0.49682 0.932775 0.435476 
v 0.49682 0.932775 0.435476 
v 0.497833 0.935181 -0.429165 
v 0.432965 1 -0.429062 
v 0.431952 0.997594 0.435579 
v 0.431952 0.997594 0.435579 
v 0.432965 1 -0.429062 
v -0.434269 0.998992 -0.430075 
v -0.435286 0.996586 0.434566 
v -0.434269 0.998992 -0.430075 
v -0.43412 0.934282 -0.494854 
v -0.498993 0.934022 -0.430329 
v -0.498993 0.934022 -0.430329 
v -0.43412 0.934282 -0.494854 
v -0.431957 -0.932525 -0.5 
v -0.49682 -0.932784 -0.435476 
v -0.49682 -0.932784 -0.435476 
v -0.431957 -0.932525 -0.5 
v -0.431957 -0.997594 -0.435579 
v 0.435282 -0.931517 -0.498987 
v 0.435282 -0.996586 -0.434566 
v 0.435282 -0.996586 -0.434566 
v 0.435282 -0.931517 -0.498987 
v 0.5 -0.931627 -0.434312 
v 0.435282 -0.931517 -0.498987 
v 0.433115 0.93529 -0.493841 
v 0.433115 0.93529 -0.493841 
v 0.432965 1 -0.429062 
v 0.432965 1 -0.429062 
v 0.433115 0.93529 -0.493841 
v 0.433115 0.93529 -0.493841 
v 0.435282 -0.931517 -0.498987 

vn 0 0 1 
vn 0 0 1 
vn 0 0 1 
vn 0 0 1 
vn 0 0 1 
vn 0 1 0 
vn -1 0 0 
vn 0 0 1 
vn -1 0 0 
vn -1 0 0 
vn 0 0 1 
vn 0 0 1 
vn -1 0 0 
vn 0 -1 0 
vn 0 0 1 
vn 0 -1 0 
vn 0 -1 0 
vn 0 0 1 
vn 0 0 1 
vn 0 -1 0 
vn 1 0 0 
vn 1 0 0 
vn 1 0 0 
vn 0 0 1 
vn 1 0 0 
vn 0 1 0 
vn 0 1 0 
vn 0 0 1 
vn 0 1 0 
vn 0 1 0 
vn -1 0 0 
vn -1 0 0 
vn -1 0 0 
vn -1 0 0 
vn -1 0 0 
vn 0 -1 0 
vn 0 -1 0 
vn 0 -1 0 
vn 0 -1 0 
vn 0 -1 0 
vn 0 -1 0 
vn 0 -1 0 
vn 0 -1 0 
vn 1 0 0 
vn 1 0 0 
vn 1 0 0 
vn 1 0 0 
vn 1 0 0 
vn 1 0 0 
vn 1 0 0 
vn 1 0 0 
vn 0 1 0 
vn 0 1 0 
vn 0 1 0 
vn 0 1 0 
vn 0 1 0 
vn 0 1 0 
vn 0 1 0 
vn 0 0 -1 
vn -1 0 0 
vn -1 0 0 
vn 0 0 -1 
vn 0 0 -1 
vn -1 0 0 
vn -1 0 0 
vn 0 0 -1 
vn 0 -1 0 
vn 0 0 -1 
vn 0 -1 0 
vn 0 -1 0 
vn 0 0 -1 
vn 1 0 0 
vn 0 0 -1 
vn 0 0 -1 
vn 0 0 -1 
vn 0 1 0 
vn 0 1 0 
vn 0 0 -1 
vn 0 0 -1 
vn 0 0 -1 

vt 0.148164 0.362728 
vt 0.148591 0.143108 
vt 0.253986 0.144314 
vt 0.246225 0.363068 
vt 0.4795 0.481861 
vt 0.47657 0.481841 
vt 0.479548 0.474049 
vt 0.139161 0.364414 
vt 0.13498 0.364448 
vt 0.135155 0.142251 
vt 0.140157 0.143936 
vt 0.472088 0.142688 
vt 0.479269 0.142875 
vt 0.472129 0.145754 
vt 0.148652 0.145607 
vt 0.148378 0.141742 
vt 0.253844 0.142719 
vt 0.254434 0.146584 
vt 0.385191 0.142549 
vt 0.385232 0.145615 
vt 0.374719 0.144335 
vt 0.254117 0.14341 
vt 0.25369 0.36303 
vt 0.382369 0.481645 
vt 0.374904 0.481574 
vt 0.382396 0.478579 
vt 0.478117 0.478436 
vt 0.47809 0.481502 
vt 0.476619 0.47403 
vt 0.475544 0.37128 
vt 0.478474 0.3713 
vt 0.0359234 0.362617 
vt 0.0360981 0.142821 
vt 0.0356661 0.139246 
vt 0.140452 0.139197 
vt 0.139979 0.142499 
vt 0.0357071 0.142312 
vt 0.473164 0.023748 
vt 0.476315 0.125164 
vt 0.37734 0.124225 
vt 0.377642 0.0233038 
vt 0.260915 0.141092 
vt 0.364103 0.140814 
vt 0.364698 0.14441 
vt 0.260924 0.144714 
vt 0.262595 0.141297 
vt 0.358601 0.14156 
vt 0.358373 0.36315 
vt 0.262367 0.362887 
vt 0.37258 0.481565 
vt 0.373025 0.37886 
vt 0.375955 0.37886 
vt 0.37551 0.481565 
vt 0.374002 0.480526 
vt 0.374002 0.373038 
vt 0.479116 0.373523 
vt 0.479116 0.481011 
vt 0.472254 0.372837 
vt 0.47227 0.369771 
vt 0.479735 0.369815 
vt 0.477818 0.362942 
vt 0.472816 0.363054 
vt 0.473568 0.142609 
vt 0.480339 0.143223 
vt 0.480918 0.143415 
vt 0.479634 0.142945 
vt 0.479675 0.146011 
vt 0.376198 0.1462 
vt 0.3758 0.143368 
vt 0.262049 0.14102 
vt 0.365051 0.143621 
vt 0.365172 0.140442 
vt 0.365205 0.142478 
vt 0.365838 0.362267 
vt 0.373025 0.371048 
vt 0.375955 0.371048 
vt 0.37347 0.373431 
vt 0.373487 0.370365 
vt 0.373158 0.363867 
vt 0.373911 0.143422 

usemtl Leftleg1Mtl

f 1/1/1 2/2/2 3/3/3 
f 1/1/1 3/3/3 4/4/4 
f 5/5/5 6/6/6 7/7/7 
f 8/8/8 9/9/9 10/10/10 
f 8/8/8 10/10/10 11/11/11 
f 12/12/12 13/13/13 14/14/14 
f 15/15/15 16/16/16 17/17/17 
f 15/15/15 17/17/17 18/18/18 
f 19/19/19 20/20/20 21/21/21 
f 3/3/3 22/22/22 23/23/23 
f 3/3/3 23/23/23 4/4/4 
f 24/24/24 25/25/25 26/26/26 
f 24/24/24 26/26/26 27/27/27 
f 24/24/24 27/27/27 28/28/28 
f 29/29/29 30/30/30 31/31/31 
f 29/29/29 31/31/31 7/7/7 
f 9/9/9 32/32/32 33/33/33 
f 9/9/9 33/33/33 10/10/10 
f 34/34/34 35/35/35 36/36/36 
f 34/34/34 36/36/36 37/37/37 
f 38/38/38 39/39/39 40/40/40 
f 38/38/38 40/40/40 41/41/41 
f 42/42/42 43/43/43 44/44/44 
f 42/42/42 44/44/44 45/45/45 
f 46/46/46 47/47/47 48/48/48 
f 46/46/46 48/48/48 49/49/49 
f 50/50/50 51/51/51 52/52/52 
f 50/50/50 52/52/52 53/53/53 
f 54/54/54 55/55/55 56/56/56 
f 54/54/54 56/56/56 57/57/57 
f 58/58/58 59/59/59 60/60/60 
f 61/61/61 62/62/62 63/63/63 
f 61/61/61 63/63/63 64/64/64 
f 65/65/65 66/66/66 67/67/67 
f 67/67/67 66/66/66 68/68/68 
f 67/67/67 68/68/68 69/69/69 
f 70/70/70 71/71/71 72/72/72 
f 47/47/47 73/73/73 74/74/74 
f 47/47/47 74/74/74 48/48/48 
f 51/51/51 75/75/75 76/76/76 
f 77/77/77 78/78/78 59/59/59 
f 77/77/77 59/59/59 58/58/58 
f 79/79/79 80/80/80 63/63/63 
f 79/79/79 63/63/63 62/62/62 

